# Blender v2.73 (sub 0) OBJ File: ''
# www.blender.org
o Cube
v 1.000000 -1.000000 -1.000000
v 1.000000 -1.000000 1.000000
v -1.000000 -1.000000 1.000000
v -1.000000 -1.000000 -1.000000
v 1.000000 1.000000 -0.999999
v 0.999999 1.000000 1.000001
v -1.000000 1.000000 1.000000
v -1.000000 1.000000 -1.000000
vt 0.253906 0.746094
vt -0.000000 0.746094
vt 0.000000 0.492188
vt 0.507812 1.000000
vt 0.507812 0.746094
vt 0.761719 0.746094
vt 0.253906 0.492188
vt 0.253906 1.000000
vt 0.000100 0.999900
vt 0.507812 0.492188
vt 0.761719 0.492188
vt 0.761719 1.000000
vn 0.000000 -1.000000 0.000000
vn 0.000000 1.000000 0.000000
vn 1.000000 0.000000 0.000000
vn -0.000000 0.000000 1.000000
vn -1.000000 -0.000000 -0.000000
vn 0.000000 0.000000 -1.000000
s off
f 2/1/1 3/2/1 4/3/1
f 8/4/2 7/5/2 6/6/2
f 5/5/3 6/1/3 2/7/3
f 6/8/4 7/9/4 3/2/4
f 3/5/5 7/4/5 8/8/5
f 1/10/6 4/11/6 8/6/6
f 1/7/1 2/1/1 4/3/1
f 5/12/2 8/4/2 6/6/2
f 1/10/3 5/5/3 2/7/3
f 2/1/4 6/8/4 3/2/4
f 4/1/5 3/5/5 8/8/5
f 5/5/6 1/10/6 8/6/6
