# Blender v2.80 (sub 75) OBJ File: ''
# www.blender.org
o Cube
v -0.554454 5.741713 0.977379
v 0.554454 5.741713 0.977379
v 0.554454 4.391599 0.977379
v -0.554454 4.391599 0.977379
v 0.554454 2.240820 1.730081
v 0.554454 2.240820 0.977379
v -0.554454 2.240820 0.977379
v -0.554454 2.240820 1.730081
v -0.554454 4.391599 1.730081
v 0.554454 4.391599 1.730081
v -0.554454 3.375788 1.730081
v 0.554454 3.375787 1.730081
v 0.554454 3.375787 0.977379
v -0.554454 3.375788 0.977379
v 0.554454 4.391599 0.977379
v 0.554454 -0.028364 0.977379
v -0.554454 4.391599 0.977379
v -0.554454 -0.028364 0.977379
v 0.554454 4.391599 0.977379
v -0.554454 5.741713 0.977379
v 0.554454 3.375787 1.730081
v 0.554454 2.240820 1.730081
v -0.554454 3.375788 1.730081
v -0.554454 2.240820 1.730081
v 0.554454 2.240820 0.977379
v -0.554454 2.240820 0.977379
v 0.554454 4.391599 0.977379
v 0.554454 4.391599 1.730081
v -0.554454 4.391599 1.730081
v -0.554454 4.391599 0.977379
v -0.554454 4.391599 0.977379
v -0.554454 3.375788 0.977379
v 0.554454 3.375787 0.977379
v 0.554454 5.741713 0.977379
v -0.554454 -0.028364 0.977379
v 0.554454 -0.028364 0.977379
v 0.554454 4.391599 0.000000
v -0.554454 5.741713 -0.977379
v -0.554454 5.741713 0.000000
v 0.554454 5.741713 -0.977379
v 0.554454 5.741713 0.000000
v 0.554454 4.391599 -0.977379
v 0.554454 4.391599 0.000000
v -0.554454 4.391599 0.000000
v -0.554454 4.391599 -0.977379
v 0.554454 2.240820 -1.730081
v 0.554454 2.240820 -0.977379
v -0.554454 2.240820 -0.977379
v -0.554454 2.240820 -1.730081
v -0.554454 4.391599 -1.730081
v 0.554454 4.391599 -1.730081
v -0.554454 3.375788 -1.730081
v 0.554454 3.375787 -1.730081
v -0.554454 -0.028364 0.000000
v 0.554454 -0.028364 0.000000
v -0.554454 4.391599 0.000000
v 0.554454 4.391599 0.000000
v 0.554454 3.375787 -0.977379
v -0.554454 3.375788 -0.977379
v 0.554454 4.391599 -0.977379
v 0.554454 -0.028364 -0.977379
v 0.554454 3.375787 0.000000
v -0.554454 3.375787 0.000000
v -0.554454 4.391599 -0.977379
v -0.554454 -0.028364 -0.977379
v 0.554454 4.391599 -0.977379
v -0.554454 5.741713 -0.977379
v -0.554454 5.741713 0.000000
v 0.554454 4.391599 0.000000
v -0.554454 4.391599 0.000000
v 0.554454 5.741713 0.000000
v 0.554454 3.375787 -1.730081
v 0.554454 2.240820 -1.730081
v -0.554454 4.391599 0.000000
v -0.554454 3.375788 -1.730081
v -0.554454 2.240820 -1.730081
v 0.554454 2.240820 -0.977379
v -0.554454 2.240820 -0.977379
v 0.554454 4.391599 -0.977379
v 0.554454 4.391599 -1.730081
v -0.554454 4.391599 -1.730081
v -0.554454 4.391599 -0.977379
v -0.554454 4.391599 -0.977379
v -0.554454 3.375788 -0.977379
v 0.554454 3.375787 -0.977379
v 0.554454 5.741713 -0.977379
v -0.554454 3.375787 0.000000
v -0.554454 -0.028364 0.000000
v 0.554454 3.375787 0.000000
v 0.554454 -0.028364 0.000000
v -0.554454 -0.028364 -0.977379
v 0.554454 -0.028364 -0.977379
vt 0.301351 0.190630
vt 0.366905 0.285977
vt 0.301351 0.285977
vt 0.065554 0.906843
vt 0.000000 1.000000
vt 0.000000 0.906843
vt 0.301351 0.371313
vt 0.366905 0.371313
vt 0.795855 0.164216
vt 0.913439 0.082108
vt 0.913439 0.164216
vt 0.000000 0.000000
vt 0.000000 0.000000
vt 0.000000 0.000000
vt 0.537148 0.657290
vt 0.452027 0.742627
vt 0.452027 0.657290
vt 0.537148 0.371313
vt 0.452027 0.371313
vt 0.000000 0.000000
vt 0.000000 0.000000
vt 1.000000 0.758269
vt 0.934446 0.851426
vt 0.934446 0.758269
vt 0.602702 0.285977
vt 0.699279 0.000000
vt 0.699279 0.285977
vt 0.892432 0.441852
vt 0.989009 0.537199
vt 0.892432 0.537199
vt 0.537148 0.561944
vt 0.602702 0.657290
vt 0.193153 0.906843
vt 0.096577 0.824735
vt 0.193153 0.824735
vt 0.000000 0.000000
vt 0.000000 0.000000
vt 0.795855 0.413768
vt 0.892432 0.328432
vt 0.892432 0.413768
vt 0.366905 0.000000
vt 0.452027 0.285977
vt 0.892432 0.509115
vt 0.452027 0.371313
vt 0.537148 0.742627
vt 0.386306 0.906842
vt 0.289730 0.824735
vt 0.386306 0.824735
vt 0.386306 0.742627
vt 0.482883 0.856047
vt 0.386306 0.856047
vt 0.720286 0.654062
vt 0.837869 0.571954
vt 0.837869 0.654062
vt 0.235797 0.657290
vt 0.301351 0.561944
vt 0.301351 0.657290
vt 0.934446 0.571954
vt 1.000000 0.665111
vt 0.934446 0.665111
vt 0.301351 0.742627
vt 0.235797 0.742627
vt 0.602702 0.654062
vt 0.720286 0.736170
vt 0.602702 0.736170
vt 0.000000 0.000000
vt 0.000000 0.000000
vt 0.000000 0.000000
vt 0.150676 0.000000
vt 0.235797 0.085337
vt 0.150676 0.085337
vt 0.235797 0.371313
vt 0.150676 0.371313
vt 0.000000 0.000000
vt 0.000000 0.000000
vt 0.913439 0.093157
vt 0.978993 0.186315
vt 0.913439 0.186315
vt 0.699279 0.000000
vt 0.795855 0.285977
vt 0.699279 0.285977
vt 0.482883 0.856047
vt 0.386306 0.951394
vt 0.386306 0.856047
vt 0.301351 0.085337
vt 0.235797 0.180683
vt 0.289730 0.824735
vt 0.193153 0.906843
vt 0.193153 0.824735
vt 0.000000 0.000000
vt 0.000000 0.000000
vt 0.602702 0.736170
vt 0.699279 0.821506
vt 0.602702 0.821506
vt 0.235797 0.371313
vt 0.150676 0.657290
vt 0.150675 0.371313
vt 0.602702 0.916853
vt 0.150676 0.742627
vt 0.235797 0.000000
vt 0.096577 0.824735
vt 0.000000 0.906842
vt 0.000000 0.824735
vt 0.837869 0.866058
vt 0.934446 0.752637
vt 0.934446 0.866058
vt 0.913439 0.328432
vt 0.795855 0.246324
vt 0.913439 0.246324
vt 0.537148 0.285977
vt 0.602702 0.190630
vt 0.602702 0.285977
vt 0.978993 0.093157
vt 0.913439 0.000000
vt 0.978993 0.000000
vt 0.602702 0.371313
vt 0.537148 0.371313
vt 0.795855 0.000000
vt 0.913439 0.000000
vt 0.000000 0.000000
vt 0.000000 0.000000
vt 0.366905 0.657290
vt 0.366905 0.371313
vt 0.000000 0.000000
vt 0.000000 0.000000
vt 1.000000 0.758269
vt 0.934446 0.665111
vt 1.000000 0.665111
vt 0.602702 0.285977
vt 0.699279 0.571954
vt 0.602702 0.571954
vt 0.482883 0.951394
vt 0.579460 0.856047
vt 0.579460 0.951394
vt 0.301351 0.657290
vt 0.366905 0.561944
vt 0.193153 0.742627
vt 0.000000 0.000000
vt 0.699279 0.736170
vt 0.795855 0.821506
vt 0.699279 0.821506
vt 0.452027 0.000000
vt 0.537148 0.000000
vt 0.699279 0.916853
vt 0.366905 0.742627
vt 0.386306 0.742627
vt 0.482883 0.856047
vt 0.579460 0.742627
vt 0.579460 0.856047
vt 0.837869 0.736170
vt 0.000000 0.561944
vt 0.065554 0.657290
vt 0.000000 0.657290
vt 0.913439 0.279472
vt 0.978993 0.186315
vt 0.978993 0.279472
vt 0.000000 0.742627
vt 0.065554 0.742627
vt 0.720286 0.571954
vt 0.602702 0.571954
vt 0.000000 0.000000
vt 0.000000 0.000000
vt 0.065554 0.085337
vt 0.065554 0.371313
vt 0.000000 0.000000
vt 0.000000 0.000000
vt 0.934446 0.944584
vt 1.000000 0.851426
vt 1.000000 0.944584
vt 0.699279 0.571954
vt 0.795855 0.285977
vt 0.795855 0.571954
vt 0.837869 0.866058
vt 0.934446 0.961404
vt 0.837869 0.961404
vt 0.065554 0.180683
vt 0.000000 0.085337
vt 0.193153 0.742627
vt 0.000000 0.000000
vt 0.837869 0.657290
vt 0.934446 0.571954
vt 0.934446 0.657290
vt 0.065554 0.371313
vt 0.934446 0.752637
vt 0.065554 0.000000
vt 0.000000 0.742627
vt 0.892432 0.328432
vt 0.989009 0.441852
vt 0.892432 0.441852
vt 0.913439 0.164216
vt 0.366905 0.190630
vt 0.065554 1.000000
vt 0.795855 0.082108
vt 1.000000 0.851426
vt 0.602702 0.000000
vt 0.989009 0.441852
vt 0.602702 0.561944
vt 0.096577 0.906842
vt 0.795855 0.328432
vt 0.795855 0.509115
vt 0.602702 0.742627
vt 0.289730 0.906843
vt 0.482883 0.742627
vt 0.720286 0.571954
vt 0.235797 0.561944
vt 1.000000 0.571954
vt 0.720286 0.654062
vt 0.978993 0.093157
vt 0.795855 0.000000
vt 0.482883 0.951394
vt 0.301351 0.180683
vt 0.289730 0.906842
vt 0.699279 0.736170
vt 0.699279 0.916853
vt 0.301351 0.000000
vt 0.096577 0.906843
vt 0.837869 0.752637
vt 0.795855 0.328432
vt 0.537148 0.190630
vt 0.913439 0.093157
vt 0.934446 0.758269
vt 0.699279 0.285977
vt 0.482883 0.856047
vt 0.301351 0.561944
vt 0.096577 0.742627
vt 0.795855 0.736170
vt 0.795855 0.916853
vt 0.301351 0.742627
vt 0.289730 0.742627
vt 0.482883 0.742627
vt 0.720286 0.736170
vt 0.065554 0.561944
vt 0.913439 0.186315
vt 0.934446 0.851426
vt 0.699279 0.285977
vt 0.934446 0.866058
vt 0.000000 0.180683
vt 0.289730 0.742627
vt 0.837869 0.571954
vt 0.837869 0.752637
vt 0.000000 0.000000
vt 0.096577 0.742627
vt 0.989009 0.328432
vt 0.795855 0.164216
vn 1.0000 -0.0000 0.0000
vn 0.0000 -1.0000 0.0000
vn -1.0000 0.0000 0.0000
vn 0.0000 0.0000 1.0000
vn 0.0000 1.0000 0.0000
vn 0.0000 0.0000 -1.0000
s off
f 8/1/1 14/2/1 11/3/1
f 10/4/2 17/5/2 15/6/2
f 9/7/1 14/2/1 17/8/1
f 2/9/3 43/10/3 3/11/3
f 56/12/4 4/13/4 17/14/4
f 13/15/3 57/16/3 62/17/3
f 16/18/3 62/17/3 55/19/3
f 17/14/4 3/20/4 15/21/4
f 8/22/5 6/23/5 7/24/5
f 18/25/6 13/26/6 16/27/6
f 7/28/4 13/29/4 14/30/4
f 6/31/3 12/32/3 13/15/3
f 18/33/5 55/34/5 54/35/5
f 15/21/4 43/36/4 57/37/4
f 11/38/6 10/39/6 12/40/6
f 18/41/1 63/42/1 14/2/1
f 5/43/6 11/38/6 12/40/6
f 14/2/1 56/44/1 17/8/1
f 12/32/3 15/45/3 13/15/3
f 2/46/2 39/47/2 41/48/2
f 1/49/6 3/50/6 4/51/6
f 39/52/1 4/53/1 44/54/1
f 32/55/3 24/56/3 23/57/3
f 30/58/5 28/59/5 27/60/5
f 32/55/3 29/61/3 30/62/3
f 37/63/1 34/64/1 19/65/1
f 74/66/4 31/67/4 70/68/4
f 69/69/1 33/70/1 89/71/1
f 89/71/1 36/72/1 90/73/1
f 30/74/4 19/75/4 31/67/4
f 25/76/2 24/77/2 26/78/2
f 33/79/4 35/80/4 36/81/4
f 33/82/6 26/83/6 32/84/6
f 21/85/1 25/86/1 33/70/1
f 90/87/2 35/88/2 88/89/2
f 27/90/4 37/91/4 19/75/4
f 28/92/4 23/93/4 21/94/4
f 35/95/3 87/96/3 88/97/3
f 23/93/4 22/98/4 21/94/4
f 32/55/3 74/99/3 87/96/3
f 27/100/1 21/85/1 33/70/1
f 68/101/5 34/102/5 71/103/5
f 19/104/4 20/105/4 31/106/4
f 31/107/3 68/108/3 70/109/3
f 59/110/1 49/111/1 52/112/1
f 64/113/2 51/114/2 60/115/2
f 59/110/1 50/116/1 64/117/1
f 43/10/3 40/118/3 42/119/3
f 56/12/4 45/120/4 44/121/4
f 57/16/3 58/122/3 62/17/3
f 62/17/3 61/123/3 55/19/3
f 64/124/4 42/125/4 45/120/4
f 47/126/5 49/127/5 48/128/5
f 58/129/4 65/130/4 61/131/4
f 58/132/6 48/133/6 59/134/6
f 53/135/3 47/136/3 58/122/3
f 55/34/5 65/137/5 54/35/5
f 60/138/4 43/36/4 42/125/4
f 51/139/4 52/140/4 53/141/4
f 59/110/1 54/142/1 65/143/1
f 52/140/4 46/144/4 53/141/4
f 64/117/1 63/42/1 59/110/1
f 60/145/3 53/135/3 58/122/3
f 39/47/2 40/146/2 41/48/2
f 42/147/4 38/148/4 45/149/4
f 45/150/1 39/52/1 44/54/1
f 76/151/3 84/152/3 75/153/3
f 80/154/5 82/155/5 79/156/5
f 81/157/3 84/152/3 82/158/3
f 86/159/1 37/63/1 66/160/1
f 74/66/4 83/161/4 82/162/4
f 85/163/1 69/69/1 89/71/1
f 92/164/1 89/71/1 90/73/1
f 82/162/4 66/165/4 79/166/4
f 76/167/2 77/168/2 78/169/2
f 91/170/6 85/171/6 92/172/6
f 78/173/4 85/174/4 84/175/4
f 77/176/1 72/177/1 85/163/1
f 91/178/2 90/87/2 88/89/2
f 79/166/4 37/91/4 69/179/4
f 75/180/6 80/181/6 72/182/6
f 88/97/3 84/152/3 91/183/3
f 73/184/6 75/180/6 72/182/6
f 84/152/3 74/99/3 82/158/3
f 72/177/1 79/185/1 85/163/1
f 86/186/5 68/101/5 71/103/5
f 67/187/6 66/188/6 83/189/6
f 68/108/3 83/190/3 70/109/3
f 8/1/1 7/191/1 14/2/1
f 10/4/2 9/192/2 17/5/2
f 9/7/1 11/3/1 14/2/1
f 2/9/3 41/193/3 43/10/3
f 56/12/4 44/121/4 4/13/4
f 13/15/3 15/45/3 57/16/3
f 16/18/3 13/15/3 62/17/3
f 17/14/4 4/13/4 3/20/4
f 8/22/5 5/194/5 6/23/5
f 18/25/6 14/195/6 13/26/6
f 7/28/4 6/196/4 13/29/4
f 6/31/3 5/197/3 12/32/3
f 18/33/5 16/198/5 55/34/5
f 15/21/4 3/20/4 43/36/4
f 11/38/6 9/199/6 10/39/6
f 18/41/1 54/142/1 63/42/1
f 5/43/6 8/200/6 11/38/6
f 14/2/1 63/42/1 56/44/1
f 12/32/3 10/201/3 15/45/3
f 2/46/2 1/202/2 39/47/2
f 1/49/6 2/203/6 3/50/6
f 39/52/1 1/204/1 4/53/1
f 32/55/3 26/205/3 24/56/3
f 30/58/5 29/206/5 28/59/5
f 32/55/3 23/57/3 29/61/3
f 37/63/1 71/207/1 34/64/1
f 74/66/4 30/74/4 31/67/4
f 69/69/1 27/100/1 33/70/1
f 89/71/1 33/70/1 36/72/1
f 30/74/4 27/90/4 19/75/4
f 25/76/2 22/208/2 24/77/2
f 33/79/4 32/209/4 35/80/4
f 33/82/6 25/210/6 26/83/6
f 21/85/1 22/211/1 25/86/1
f 90/87/2 36/212/2 35/88/2
f 27/90/4 69/179/4 37/91/4
f 28/92/4 29/213/4 23/93/4
f 35/95/3 32/55/3 87/96/3
f 23/93/4 24/214/4 22/98/4
f 32/55/3 30/62/3 74/99/3
f 27/100/1 28/215/1 21/85/1
f 68/101/5 20/216/5 34/102/5
f 19/104/4 34/217/4 20/105/4
f 31/107/3 20/218/3 68/108/3
f 59/110/1 48/219/1 49/111/1
f 64/113/2 50/220/2 51/114/2
f 59/110/1 52/112/1 50/116/1
f 43/10/3 41/193/3 40/118/3
f 56/12/4 64/124/4 45/120/4
f 57/16/3 60/145/3 58/122/3
f 62/17/3 58/122/3 61/123/3
f 64/124/4 60/138/4 42/125/4
f 47/126/5 46/221/5 49/127/5
f 58/129/4 59/222/4 65/130/4
f 58/132/6 47/223/6 48/133/6
f 53/135/3 46/224/3 47/136/3
f 55/34/5 61/225/5 65/137/5
f 60/138/4 57/37/4 43/36/4
f 51/139/4 50/226/4 52/140/4
f 59/110/1 63/42/1 54/142/1
f 52/140/4 49/227/4 46/144/4
f 64/117/1 56/44/1 63/42/1
f 60/145/3 51/228/3 53/135/3
f 39/47/2 38/229/2 40/146/2
f 42/147/4 40/230/4 38/148/4
f 45/150/1 38/231/1 39/52/1
f 76/151/3 78/232/3 84/152/3
f 80/154/5 81/233/5 82/155/5
f 81/157/3 75/153/3 84/152/3
f 86/159/1 71/207/1 37/63/1
f 74/66/4 70/68/4 83/161/4
f 85/163/1 79/185/1 69/69/1
f 92/164/1 85/163/1 89/71/1
f 82/162/4 83/161/4 66/165/4
f 76/167/2 73/234/2 77/168/2
f 91/170/6 84/235/6 85/171/6
f 78/173/4 77/236/4 85/174/4
f 77/176/1 73/237/1 72/177/1
f 91/178/2 92/238/2 90/87/2
f 79/166/4 66/165/4 37/91/4
f 75/180/6 81/239/6 80/181/6
f 88/97/3 87/96/3 84/152/3
f 73/184/6 76/240/6 75/180/6
f 84/152/3 87/96/3 74/99/3
f 72/177/1 80/241/1 79/185/1
f 86/186/5 67/242/5 68/101/5
f 67/187/6 86/243/6 66/188/6
f 68/108/3 67/244/3 83/190/3
